<svg width="49" height="48" viewBox="0 0 49 48" fill="none" xmlns="http://www.w3.org/2000/svg">
<path d="M29.3159 35.5942C27.4507 35.5801 24.652 35.5118 21.8987 35.2705C20.0033 35.1036 18.0453 34.8403 16.5584 34.0562C16.1391 33.8351 15.6809 33.7808 15.2746 33.7346C15.1017 33.7145 14.9396 33.6964 14.8013 33.6662C13.7467 33.435 13.0097 32.5866 13.0054 31.6035L12.9902 25.0195C12.9881 24.1088 13.6861 23.3469 14.6522 23.2061C14.6695 23.2041 14.6846 23.2001 14.7019 23.1961C14.8208 23.1599 17.6606 22.2994 19.8001 20.7434C20.8073 20.0116 21.6696 18.8838 22.1083 17.7278C22.5449 16.5759 22.5427 15.3194 22.5405 14.3101C22.5405 13.6588 22.5384 12.8486 22.7286 12.73C23.191 12.4465 23.7011 12.3018 24.2435 12.3018C25.912 12.3018 27.615 13.7191 27.682 15.1625C27.7295 16.1637 27.3686 17.3458 27.0207 18.4877C26.61 19.8407 26.2534 21.0088 26.5755 21.8029C26.623 21.9215 26.744 21.9979 26.878 21.9979C26.8824 21.9979 28.4535 21.9476 28.4535 21.9476H28.4687C30.2322 21.9476 31.6672 23.2825 31.6694 24.921L31.6802 33.4069C31.6802 33.9919 31.4381 34.5407 30.9929 34.9529C30.5499 35.365 29.9599 35.5942 29.331 35.5942H29.3159Z" fill="url(#paint0_radial_92_1840)"/>
<path d="M24.2435 12.6031C25.7261 12.6031 27.2973 13.9018 27.3578 15.1744C27.4032 16.1273 27.0509 17.2853 26.7094 18.4051C26.2815 19.8084 25.9141 21.0206 26.2729 21.9072C26.368 22.1424 26.61 22.2972 26.8802 22.2972H26.9039L28.46 22.247H28.4729C30.0571 22.247 31.3473 23.4452 31.3495 24.9208L31.3603 33.4067C31.3603 33.9093 31.1507 34.3837 30.7681 34.7396C30.3856 35.0954 29.8777 35.2924 29.3353 35.2924H29.318C27.4594 35.2783 24.6693 35.21 21.9289 34.9708C20.0702 34.8079 18.1511 34.5506 16.7182 33.7947C16.2428 33.5434 15.7284 33.4851 15.3156 33.4368C15.1514 33.4187 14.9979 33.4006 14.8769 33.3725C13.9692 33.1735 13.3338 32.4457 13.3317 31.6033L13.3144 25.0193C13.3122 24.2594 13.8957 23.6221 14.7019 23.5055C14.7343 23.5015 14.7689 23.4934 14.7991 23.4834C14.9201 23.4472 17.8118 22.5686 19.9968 20.9804C21.0493 20.2145 21.9526 19.0364 22.4108 17.8281C22.8668 16.6279 22.8647 15.3433 22.8625 14.3099C22.8625 13.8194 22.8603 13.156 22.9511 12.9549C23.3488 12.7197 23.7832 12.6031 24.2435 12.6031ZM24.2435 12C23.6708 12 23.0916 12.1447 22.5491 12.4785C21.8489 12.9087 22.6075 15.4981 21.8014 17.6251C21.3173 18.9017 20.3944 19.927 19.5991 20.504C17.4811 22.0439 14.6024 22.9084 14.6024 22.9084C13.4851 23.0712 12.6639 23.9679 12.666 25.0213L12.6833 31.6054C12.6876 32.7392 13.5413 33.6982 14.7278 33.9595C15.2076 34.0641 15.8624 34.0359 16.3984 34.3194C17.8313 35.0753 19.6683 35.3769 21.8684 35.5699C24.5915 35.8091 27.3578 35.8795 29.3137 35.8955H29.3353C30.8114 35.8955 32.0108 34.7818 32.0087 33.4067L31.9978 24.9208C31.9957 23.1094 30.4159 21.6459 28.4729 21.6459H28.447L26.8823 21.6961C26.342 20.3612 28.112 17.3577 28.0083 15.1483C27.9327 13.5782 26.1324 12 24.2435 12Z" fill="#EDA600"/>
<path d="M25.1232 23.6986C25.5295 24.7038 25.5338 26.2719 25.1232 27.2409C24.5288 28.6401 23.0744 29.8644 21.3951 30.0796C20.9845 30.1318 21.2287 30.4836 21.6372 30.4314C23.4547 30.1982 25.9142 29.5126 26.5539 27.9948C28.3088 23.8232 26.2556 21.6379 25.3393 22.2893C24.8984 22.6069 24.8941 23.1296 25.1232 23.6986Z" fill="#EDA600"/>
<path d="M29.48 25.1904C27.6733 25.1904 25.5013 24.8787 25.4083 23.389C25.3824 22.9628 25.5207 22.605 25.8319 22.2974C26.651 21.4892 28.6631 21.0449 31.4986 21.0449C32.5273 21.0449 33.2772 21.1072 33.2859 21.1072C33.2945 21.1072 33.3053 21.1093 33.314 21.1093H33.3334C33.3637 21.1072 33.3918 21.1072 33.422 21.1072C34.3405 21.1072 35.1078 21.8772 35.1704 22.8603C35.2353 23.8776 34.5156 24.7461 33.5668 24.7963C33.5517 24.7963 33.5344 24.7983 33.5193 24.8023C33.4998 24.8044 31.4986 25.1904 29.48 25.1904Z" fill="url(#paint1_radial_92_1840)"/>
<path d="M31.5008 21.3453C32.5122 21.3453 33.2513 21.4056 33.2578 21.4056C33.2772 21.4076 33.2967 21.4076 33.3161 21.4076C33.3291 21.4076 33.3421 21.4076 33.3529 21.4056C33.3767 21.4036 33.4004 21.4036 33.422 21.4036C34.1677 21.4036 34.7944 22.0489 34.8463 22.8712C34.8722 23.2974 34.7425 23.7015 34.481 24.0111C34.2368 24.3006 33.904 24.4695 33.5474 24.4896C33.515 24.4916 33.4826 24.4956 33.4523 24.5016C33.4329 24.5056 31.4597 24.8856 29.48 24.8856C28.3303 24.8856 27.4183 24.761 26.7721 24.5157C25.8838 24.178 25.752 23.6995 25.7325 23.3698C25.7109 23.026 25.819 22.7506 26.0697 22.5013C26.8153 21.7675 28.7949 21.3453 31.5008 21.3453ZM31.5008 20.7422C29.0327 20.7422 24.9394 21.09 25.0842 23.406C25.1901 25.0786 27.3599 25.4907 29.48 25.4907C31.5569 25.4907 33.5863 25.0947 33.5863 25.0947C34.7144 25.0324 35.5703 24.0231 35.4946 22.839C35.4233 21.6931 34.507 20.8025 33.4242 20.8025C33.3875 20.8025 33.3529 20.8025 33.3161 20.8045C33.3161 20.8045 32.5576 20.7422 31.5008 20.7422Z" fill="#EDA600"/>
<path d="M30.8351 29.0156C28.4773 29.0156 25.6677 28.6477 25.6677 26.8906C25.6677 25.1335 28.4773 24.7656 30.8351 24.7656C32.8342 24.7656 34.6561 25.037 34.6734 25.039C34.6907 25.041 34.708 25.0431 34.7253 25.0431C35.6783 25.0431 36.3418 25.9799 36.3418 26.8202C36.3418 27.7068 35.6351 28.7362 34.7253 28.7362C34.708 28.7362 34.6907 28.7382 34.6734 28.7402C34.6539 28.7442 32.8321 29.0156 30.8351 29.0156Z" fill="url(#paint2_radial_92_1840)"/>
<path d="M30.8351 25.0689C32.8061 25.0689 34.6042 25.3363 34.6215 25.3383C34.6561 25.3444 34.6906 25.3464 34.7252 25.3464C35.4643 25.3464 36.0176 26.1264 36.0176 26.822C36.0176 27.5478 35.4211 28.4363 34.7252 28.4363C34.6906 28.4363 34.6561 28.4384 34.6215 28.4444C34.6042 28.4464 32.8039 28.7138 30.8351 28.7138C29.359 28.7138 28.1855 28.569 27.3448 28.2815C26.1323 27.8674 25.9919 27.2884 25.9919 26.8904C25.9919 26.4903 26.1323 25.9133 27.3448 25.4992C28.1833 25.2137 29.359 25.0689 30.8351 25.0689ZM30.8351 24.4658C28.2568 24.4658 25.3435 24.9061 25.3435 26.8924C25.3435 28.8786 28.2546 29.3189 30.8351 29.3189C32.8861 29.3189 34.7252 29.0415 34.7252 29.0415C35.8404 29.0415 36.666 27.8533 36.666 26.824C36.666 25.7947 35.8404 24.7453 34.7252 24.7453C34.7252 24.7433 32.8839 24.4658 30.8351 24.4658Z" fill="#EDA600"/>
<path d="M32.6311 35.6984C31.7212 35.6984 27.1114 35.6321 25.7153 34.3314C25.4711 34.1042 25.3544 33.8589 25.3544 33.5815C25.3587 32.526 27.3016 31.9209 30.6839 31.9209C31.8898 31.9209 32.8234 32.0013 32.8342 32.0013C32.8429 32.0013 32.8537 32.0033 32.8623 32.0033C33.3681 32.0053 33.8457 32.1963 34.2023 32.5441C34.5632 32.8939 34.7599 33.3603 34.7599 33.8549C34.7555 34.8701 33.9019 35.6944 32.8559 35.6944C32.8407 35.6984 32.7651 35.6984 32.6311 35.6984Z" fill="url(#paint3_radial_92_1840)"/>
<path d="M30.686 32.2242C31.8725 32.2242 32.7953 32.3026 32.804 32.3046C32.8234 32.3066 32.8429 32.3066 32.8623 32.3066C33.2795 32.3086 33.6728 32.4675 33.9689 32.755C34.2714 33.0485 34.4378 33.4405 34.4357 33.8567C34.4335 34.705 33.7247 35.3966 32.8494 35.3966H32.8472H32.8342C32.8299 35.3966 32.7564 35.3986 32.6289 35.3986C28.7064 35.3986 26.5754 34.7091 25.9422 34.12C25.7023 33.8969 25.6764 33.7079 25.6764 33.5852C25.6829 32.7449 27.5998 32.2242 30.686 32.2242ZM30.686 31.6211C28.3692 31.6211 25.0367 31.9106 25.0324 33.5812C25.0237 35.8851 31.3646 35.9997 32.6311 35.9997C32.7716 35.9997 32.8494 35.9977 32.8494 35.9977H32.8559C34.0834 35.9977 35.0797 35.0408 35.084 33.8567C35.0884 32.6705 34.0942 31.7055 32.8645 31.7015C32.8645 31.7035 31.9201 31.6211 30.686 31.6211Z" fill="#EDA600"/>
<path d="M31.8228 32.5077C29.8799 32.5077 25.363 32.3026 25.363 30.4028C25.363 28.8066 28.6199 28.5693 30.5629 28.5693C32.281 28.5693 33.7614 28.7463 33.7765 28.7483C33.7895 28.7503 33.8046 28.7503 33.8176 28.7503C34.7188 28.7503 35.7692 29.1644 35.7692 30.3325C35.7692 31.4382 34.8398 32.4434 33.8176 32.4434H33.7917C33.783 32.4454 32.951 32.5077 31.8228 32.5077Z" fill="url(#paint4_radial_92_1840)"/>
<path d="M30.5628 28.2715V28.8746C32.255 28.8746 33.7203 29.0495 33.7333 29.0515C33.7614 29.0555 33.7895 29.0555 33.8176 29.0555C34.6042 29.0555 35.4449 29.3913 35.4449 30.3362C35.4449 31.267 34.6539 32.1455 33.8176 32.1455C33.8003 32.1455 33.783 32.1455 33.7635 32.1475C33.7549 32.1475 32.9358 32.2098 31.8206 32.2098C30.6428 32.2098 28.9592 32.1395 27.6258 31.8098C26.3399 31.4901 25.6872 31.0177 25.6872 30.4085C25.6872 30.2216 25.6872 29.6526 27.0574 29.2526C27.911 29.0033 29.0889 28.8766 30.5607 28.8766L30.5628 28.2715ZM30.5628 28.2715C28.0645 28.2715 25.0388 28.6374 25.0388 30.4065C25.0388 32.4913 29.2315 32.813 31.8228 32.813C32.9812 32.813 33.8176 32.7486 33.8176 32.7486C35.0365 32.7486 36.0933 31.5766 36.0933 30.3362C36.0933 29.0957 35.0365 28.4524 33.8176 28.4524C33.8176 28.4524 32.3199 28.2715 30.5628 28.2715Z" fill="#EDA600"/>
<path d="M16.8393 34.2342L15.8041 30.4346L15.3718 33.8522L16.8393 34.2342Z" fill="#EDA600"/>
<defs>
<radialGradient id="paint0_radial_92_1840" cx="0" cy="0" r="1" gradientUnits="userSpaceOnUse" gradientTransform="translate(22.0216 17.4466) rotate(90.1343) scale(17.4983 14.8097)">
<stop offset="0.6" stop-color="#FFCA28"/>
<stop offset="1" stop-color="#FFB300"/>
</radialGradient>
<radialGradient id="paint1_radial_92_1840" cx="0" cy="0" r="1" gradientUnits="userSpaceOnUse" gradientTransform="translate(33.0832 22.9422) rotate(176.955) scale(6.10869 2.78174)">
<stop offset="0.5993" stop-color="#FFCA28"/>
<stop offset="1" stop-color="#FFB300"/>
</radialGradient>
<radialGradient id="paint2_radial_92_1840" cx="0" cy="0" r="1" gradientUnits="userSpaceOnUse" gradientTransform="translate(34.0482 26.8377) rotate(-179.941) scale(6.87652 2.56518)">
<stop offset="0.5993" stop-color="#FFCA28"/>
<stop offset="1" stop-color="#FFB300"/>
</radialGradient>
<radialGradient id="paint3_radial_92_1840" cx="0" cy="0" r="1" gradientUnits="userSpaceOnUse" gradientTransform="translate(32.7074 33.7697) rotate(-179.745) scale(5.77494 2.79681)">
<stop offset="0.5993" stop-color="#FFCA28"/>
<stop offset="1" stop-color="#FFB300"/>
</radialGradient>
<radialGradient id="paint4_radial_92_1840" cx="0" cy="0" r="1" gradientUnits="userSpaceOnUse" gradientTransform="translate(33.5294 30.4906) rotate(-179.939) scale(6.5795 2.54576)">
<stop offset="0.5993" stop-color="#FFCA28"/>
<stop offset="1" stop-color="#FFB300"/>
</radialGradient>
</defs>
</svg>
