<svg width="49" height="48" viewBox="0 0 49 48" fill="none" xmlns="http://www.w3.org/2000/svg">
<path d="M12.9895 35.8546C13.4515 36.3466 15.3543 35.4885 16.8562 34.8005C17.9816 34.2865 22.4853 32.4705 24.7239 31.5285C25.3284 31.2745 26.2075 30.9425 26.8405 30.1245C27.4022 29.3964 28.8919 26.3044 25.8921 23.1723C22.8476 19.9923 19.7115 20.8703 18.5392 21.6863C17.8493 22.1663 17.2876 23.2483 17.0353 23.7983C15.9689 26.1224 14.4487 30.3805 13.83 32.0545C13.3762 33.2885 12.5316 35.3665 12.9895 35.8546Z" fill="#FFC107"/>
<path d="M16.734 24.4971C16.7625 24.8451 16.8337 25.4111 17.078 26.5011C17.2448 27.2491 17.5175 28.0331 17.7394 28.5511C18.4048 30.1092 19.339 30.7372 20.2853 31.2412C21.893 32.0972 22.9859 32.2572 22.9859 32.2572L21.6753 32.7832C21.6753 32.7832 20.8816 32.6212 19.7989 32.0972C18.7671 31.5972 17.6926 30.7512 16.907 29.0952C16.5671 28.3771 16.3697 27.6811 16.2558 27.1291C16.1153 26.4451 16.093 26.0571 16.093 26.0571L16.734 24.4971Z" fill="#FF8F00"/>
<path d="M15.1243 28.5527C15.1243 28.5527 15.2871 29.8508 16.3779 31.4888C17.656 33.4048 19.4408 33.7188 19.4408 33.7188L18.2543 34.1988C18.2543 34.1988 16.9294 33.8008 15.6697 32.1108C14.8842 31.0568 14.6644 29.7968 14.6644 29.7968L15.1243 28.5527Z" fill="#FF8F00"/>
<path d="M13.9948 31.6299C13.9948 31.6299 14.2919 32.7499 14.9431 33.5859C15.7185 34.5839 16.7055 34.8739 16.7055 34.8739L15.7958 35.2699C15.7958 35.2699 15.1059 35.1279 14.3509 34.1879C13.777 33.4739 13.6142 32.6539 13.6142 32.6539L13.9948 31.6299Z" fill="#FF8F00"/>
<path opacity="0.44" d="M13.5002 34.4741C13.4595 34.3841 13.4595 34.2821 13.5022 34.1941L18.6857 23.6299L19.5384 26.7799L14.0843 34.5221C13.9377 34.7381 13.608 34.7101 13.5002 34.4741Z" fill="#FFFDE7"/>
<path d="M19.9495 27.8375C22.3712 30.6216 25.1288 30.2736 26.0467 29.5696C26.9665 28.8636 27.6931 26.4375 25.2815 23.6995C22.7538 20.8314 19.8925 21.6494 19.2311 22.2694C18.5697 22.8895 17.7271 25.2835 19.9495 27.8375Z" fill="url(#paint0_linear_92_1841)"/>
<path d="M28.267 28.9845C27.3837 28.2564 26.9136 28.3864 26.2827 28.6444C25.4687 28.9765 24.1886 29.2225 22.4506 28.6444L22.9736 27.4064C24.0054 27.7484 24.7523 27.5824 25.3975 27.2084C26.2278 26.7284 27.3634 26.0704 29.1299 27.5284C29.8666 28.1364 30.6216 28.5404 31.1751 28.3564C31.5781 28.2244 31.7918 27.6344 31.8996 27.1644C31.9098 27.1224 31.9261 27.0024 31.9383 26.8964C32.036 26.1624 32.1988 24.5784 33.3995 23.7684C34.6837 22.9023 36.033 22.9023 36.033 22.9023L36.2772 25.2864C35.6565 25.1964 35.225 25.3204 34.8607 25.5184C33.4891 26.2684 34.6837 29.1485 32.5488 30.1165C30.4954 31.0545 28.8165 29.4365 28.267 28.9845Z" fill="#03A9F4"/>
<path d="M20.7127 25.9443L19.8294 25.1662C21.4514 23.3862 21.024 22.0782 20.7127 21.1262C20.6496 20.9342 20.5906 20.7522 20.5519 20.5782C20.4135 19.9621 20.385 19.4261 20.4278 18.9581C19.805 18.1961 19.5303 17.3981 19.512 17.3441C19.1334 16.2181 19.4183 15.1201 20.0716 14.09C21.3924 12 23.7837 12 23.7837 12L24.5814 14.098C23.975 14.074 21.9867 14.104 21.3761 15.0501C20.6048 16.2421 21.1116 16.9781 21.1482 17.0621C21.2967 16.8721 21.4473 16.7201 21.5817 16.6021C22.5565 15.7521 23.4031 15.6301 23.9424 15.6781C24.5489 15.7321 25.0983 16.0321 25.4911 16.5241C25.9205 17.0641 26.0976 17.7661 25.9612 18.4041C25.8289 19.0261 25.4077 19.5521 24.7748 19.8861C23.6697 20.4702 22.7498 20.3902 22.1332 20.1881C22.1373 20.2021 22.1393 20.2181 22.1434 20.2321C22.1657 20.3321 22.2105 20.4722 22.2634 20.6342C22.6236 21.7302 23.2932 23.4702 20.7127 25.9443ZM22.2085 18.4381C22.3265 18.5221 22.4507 18.5921 22.5789 18.6421C23.0062 18.8101 23.4723 18.7541 24.0014 18.4741C24.3128 18.3101 24.3494 18.1341 24.3616 18.0761C24.3983 17.9021 24.3372 17.6801 24.2049 17.5141C24.0889 17.3681 23.9546 17.2921 23.7938 17.2761C23.4886 17.2501 23.0754 17.4401 22.6623 17.8021C22.4649 17.9761 22.3143 18.1901 22.2085 18.4381Z" fill="#F44336"/>
<path d="M24.2476 26.2701L22.9838 26.2361C22.9838 26.2361 23.5842 22.9041 25.5277 22.344C25.892 22.24 26.2909 22.134 26.6918 22.076C26.9299 22.04 27.3064 21.986 27.4916 21.918C27.5343 21.604 27.4 21.204 27.2494 20.75C27.1314 20.398 27.0093 20.036 26.9442 19.64C26.818 18.868 27.0276 18.186 27.5343 17.716C28.153 17.146 29.1523 16.9639 30.2797 17.216C30.9228 17.36 31.397 17.67 31.8142 17.942C32.4105 18.332 32.7585 18.53 33.487 18.048C34.3682 17.464 33.2164 15.1779 32.6038 13.8579L34.8892 12.9219C35.1965 13.5819 36.6801 16.9779 35.7012 18.916C35.3716 19.568 34.8038 20 34.0589 20.162C32.439 20.518 31.4906 19.898 30.7987 19.446C30.471 19.232 30.1841 19.064 29.8727 18.976C27.7094 18.37 30.7295 21.498 29.3151 22.9041C28.4664 23.7461 26.3926 23.9681 26.2583 24.0001C24.9233 24.3161 24.2476 26.2701 24.2476 26.2701Z" fill="#F48FB1"/>
<path d="M20.4257 18.958C20.387 19.398 20.3687 19.66 20.4847 20.232C21.0444 20.636 22.2634 20.636 22.2634 20.636C22.2105 20.474 22.1637 20.334 22.1433 20.234C22.1393 20.22 22.1372 20.204 22.1332 20.19C20.8938 19.582 20.4257 18.958 20.4257 18.958Z" fill="#C92B27"/>
<path d="M17.89 20.9288L15.7857 19.9148L16.8338 18.4268L18.4843 19.5008L17.89 20.9288Z" fill="#FFC107"/>
<path d="M14.7885 18.1198C13.7139 17.9778 12.619 17.0817 12.499 16.9797L13.5552 15.7617C13.8747 16.0277 14.5524 16.4737 15.0062 16.5337L14.7885 18.1198Z" fill="#FB8C00"/>
<path d="M16.6852 15.454L15.1385 14.956C15.3155 14.424 15.3624 13.85 15.2708 13.296L16.8785 13.042C17.0108 13.846 16.9436 14.68 16.6852 15.454Z" fill="#03A9F4"/>
<path d="M26.3444 14.2646L27.9349 13.9227L28.3942 15.986L26.8037 16.3279L26.3444 14.2646Z" fill="#FB8C00"/>
<path d="M30.2899 14.7543L29.1706 13.5922C29.7567 13.0462 29.891 12.3322 29.891 12.3242L31.4988 12.5822C31.4784 12.7082 31.2729 13.8402 30.2899 14.7543Z" fill="#FFC107"/>
<path d="M30.9119 20.916L32.3338 20.4793L32.8195 22.0065L31.3976 22.4432L30.9119 20.916Z" fill="#FB8C00"/>
<path d="M31.3258 33.8062L29.7079 33.6182C29.7771 33.0522 29.3477 32.3582 29.2297 32.2042L30.5321 31.2441C30.6298 31.3701 31.4785 32.5242 31.3258 33.8062Z" fill="#F44336"/>
<path d="M35.9699 31.7791C35.3614 31.6891 34.7387 31.6531 34.1241 31.6751L34.0692 30.0751C34.7835 30.0511 35.5059 30.0911 36.2121 30.1971L35.9699 31.7791Z" fill="#FB8C00"/>
<path d="M33.7809 33.9805L34.9248 32.8419L36.499 34.3694L35.3551 35.5079L33.7809 33.9805Z" fill="#F48FB1"/>
<path d="M30.42 23.8662L31.5963 25.188L30.2513 26.344L29.075 25.0222L30.42 23.8662Z" fill="#F44336"/>
<defs>
<linearGradient id="paint0_linear_92_1841" x1="26.6113" y1="23.5672" x2="20.6095" y2="27.2314" gradientUnits="userSpaceOnUse">
<stop offset="0.0235" stop-color="#8F4700"/>
<stop offset="1" stop-color="#703E2D"/>
</linearGradient>
</defs>
</svg>
