<svg width="49" height="48" viewBox="0 0 49 48" fill="none" xmlns="http://www.w3.org/2000/svg">
<path d="M24.833 36C19.0606 36 12.833 32.2433 12.833 24C12.833 15.7567 19.0606 12 24.833 12C28.0399 12 30.9985 13.0948 33.1916 15.0912C35.5709 17.2809 36.833 20.3721 36.833 24C36.833 27.6279 35.5709 30.6977 33.1916 32.8873C30.9985 34.8837 28.0192 36 24.833 36Z" fill="url(#paint0_radial_92_1837)"/>
<path d="M34.7413 16.8662C35.844 18.7124 36.4192 20.9106 36.4192 23.3557C36.4192 26.9836 35.1571 30.0533 32.7778 32.243C30.5847 34.2394 27.6054 35.3557 24.4192 35.3557C20.6827 35.3557 16.7558 33.7778 14.4509 30.4311C16.6771 34.2222 20.8627 35.9997 24.833 35.9997C28.0192 35.9997 30.9985 34.8834 33.1916 32.887C35.5709 30.6973 36.833 27.6276 36.833 23.9997C36.833 21.2648 36.1151 18.8347 34.7413 16.8662Z" fill="#EB8F00"/>
<path opacity="0.8" d="M17.3123 29.6745C19.312 29.6745 20.933 27.9926 20.933 25.9178C20.933 23.8431 19.312 22.1611 17.3123 22.1611C15.3127 22.1611 13.6917 23.8431 13.6917 25.9178C13.6917 27.9926 15.3127 29.6745 17.3123 29.6745Z" fill="url(#paint1_radial_92_1837)"/>
<path opacity="0.8" d="M32.5192 29.6745C34.5189 29.6745 36.1399 27.9926 36.1399 25.9178C36.1399 23.8431 34.5189 22.1611 32.5192 22.1611C30.5196 22.1611 28.8986 23.8431 28.8986 25.9178C28.8986 27.9926 30.5196 29.6745 32.5192 29.6745Z" fill="url(#paint2_radial_92_1837)"/>
<path d="M21.8041 22.7106C21.8041 22.7106 21.7937 22.6956 21.771 22.6677C21.7503 22.6398 21.7213 22.6012 21.6841 22.5518C21.653 22.5174 21.6158 22.4766 21.5724 22.4294C21.5289 22.3779 21.4751 22.3242 21.4213 22.2684C21.3655 22.2148 21.3075 22.1589 21.2475 22.1139C21.1896 22.0645 21.1255 22.028 21.0737 21.9979C21.0199 21.9636 20.9703 21.955 20.9392 21.9443C20.9227 21.9378 20.9082 21.9378 20.8958 21.9357C20.8896 21.9378 20.8834 21.9335 20.8772 21.9357L20.8689 21.9378H20.8648H20.8627C20.8875 21.9378 20.8068 21.94 20.9186 21.9357L20.8048 21.94C20.7758 21.94 20.7944 21.9421 20.7965 21.9421C20.8027 21.9421 20.8068 21.9421 20.811 21.94C20.8275 21.9335 20.811 21.94 20.8068 21.94C20.8006 21.94 20.7924 21.9421 20.7841 21.9464C20.751 21.9571 20.7013 21.9657 20.6496 22.0001C20.5979 22.0301 20.5337 22.0666 20.4758 22.116C20.4179 22.1632 20.3579 22.2169 20.302 22.2706C20.1944 22.38 20.0992 22.4895 20.033 22.569C19.9648 22.6505 19.9275 22.6978 19.9275 22.6978L19.8799 22.7557C19.5965 23.0992 19.0751 23.1571 18.7172 22.8867C18.473 22.702 18.3675 22.4144 18.413 22.1396C18.413 22.1396 18.4275 22.0516 18.4689 21.8992C18.5124 21.7468 18.5848 21.53 18.7275 21.2745C18.8703 21.0212 19.0772 20.7228 19.4268 20.4502C19.5986 20.3171 19.8075 20.184 20.0558 20.0938C20.1158 20.0702 20.1799 20.0487 20.2461 20.0316C20.3144 20.0144 20.3682 19.9951 20.4613 19.9822L20.5896 19.9629C20.6289 19.9586 20.6868 19.9521 20.6951 19.9521L20.8089 19.9436L20.873 19.9414H20.8792H20.8917L20.9186 19.9436H20.9682L21.0737 19.95C21.1441 19.9564 21.2124 19.9693 21.2806 19.98C21.4151 20.0058 21.5496 20.0423 21.6717 20.0895C21.9199 20.1797 22.1289 20.3106 22.3006 20.4459C22.6503 20.7185 22.8572 21.0169 22.9999 21.2702C23.0724 21.3969 23.1261 21.5171 23.1655 21.6223C23.2089 21.7232 23.2399 21.8305 23.2648 21.9099C23.2875 21.9872 23.2875 22.028 23.2979 22.0645C23.3041 22.0988 23.3061 22.1182 23.3061 22.1182C23.3827 22.5518 23.0744 22.9618 22.6213 23.0326C22.2965 23.0863 21.9841 22.9511 21.8041 22.7106Z" fill="#422B0D"/>
<path d="M29.9764 22.7106C29.9764 22.7106 29.9661 22.6956 29.9433 22.6677C29.9226 22.6398 29.8937 22.6012 29.8564 22.5518C29.8254 22.5174 29.7882 22.4766 29.7447 22.4294C29.7013 22.3779 29.6475 22.3242 29.5937 22.2684C29.5378 22.2148 29.4799 22.1589 29.4199 22.1139C29.3619 22.0645 29.2978 22.028 29.2461 21.9979C29.1923 21.9636 29.1426 21.955 29.1116 21.9443C29.0951 21.9378 29.0806 21.9378 29.0682 21.9357C29.062 21.9378 29.0557 21.9335 29.0495 21.9357L29.0413 21.9378H29.0371H29.0351H29.033C29.0578 21.9378 28.9771 21.94 29.0888 21.9357L28.9751 21.94C28.9461 21.94 28.9647 21.9421 28.9668 21.9421C28.973 21.9421 28.9771 21.9421 28.9813 21.94C28.9978 21.9335 28.9813 21.94 28.9771 21.94C28.9709 21.94 28.9626 21.9421 28.9544 21.9464C28.9213 21.9571 28.8716 21.9657 28.8199 22.0001C28.7682 22.0301 28.704 22.0666 28.6461 22.116C28.5882 22.1632 28.5282 22.2169 28.4723 22.2706C28.3647 22.38 28.2695 22.4895 28.2033 22.569C28.1351 22.6505 28.0978 22.6978 28.0978 22.6978L28.0502 22.7557C27.7668 23.0992 27.2454 23.1571 26.8875 22.8867C26.6433 22.702 26.5378 22.4144 26.5833 22.1396C26.5833 22.1396 26.5978 22.0516 26.6392 21.8992C26.6826 21.7468 26.7551 21.53 26.8978 21.2745C27.0406 21.0212 27.2475 20.7228 27.5971 20.4502C27.7688 20.3171 27.9778 20.184 28.2261 20.0938C28.2861 20.0702 28.3502 20.0487 28.4164 20.0316C28.4847 20.0144 28.5385 19.9951 28.6316 19.9822L28.7599 19.9629C28.7992 19.9586 28.8571 19.9521 28.8654 19.9521L28.9792 19.9436L29.0433 19.9414H29.0495H29.062L29.0888 19.9436H29.1385L29.244 19.95C29.3144 19.9564 29.3826 19.9693 29.4509 19.98C29.5854 20.0058 29.7199 20.0423 29.8419 20.0895C30.0902 20.1797 30.2992 20.3106 30.4709 20.4459C30.8206 20.7185 31.0275 21.0169 31.1702 21.2702C31.2426 21.3969 31.2964 21.5171 31.3357 21.6223C31.3792 21.7232 31.4102 21.8305 31.4351 21.9099C31.4578 21.9872 31.4578 22.028 31.4682 22.0645C31.4744 22.0988 31.4764 22.1182 31.4764 22.1182C31.553 22.5518 31.2447 22.9618 30.7916 23.0326C30.4668 23.0863 30.1544 22.9511 29.9764 22.7106Z" fill="#422B0D"/>
<path d="M24.9199 30.6749C22.3192 30.6749 20.2627 29.3976 19.1289 28.0302C19.0151 27.8928 18.9882 27.7082 19.0606 27.5472C19.133 27.3819 19.2903 27.2745 19.4599 27.2745C19.5365 27.2745 19.6151 27.296 19.6834 27.3368C20.8523 28.0366 22.8158 28.9017 24.9137 28.9017H24.9468C27.0468 28.9017 29.0082 28.0345 30.1772 27.3368C30.2475 27.296 30.3241 27.2724 30.4006 27.2745C30.5703 27.2745 30.7275 27.3819 30.7999 27.5472C30.8703 27.7082 30.8454 27.8949 30.7316 28.0302C29.5979 29.3955 27.5392 30.6749 24.9406 30.6749" fill="#422B0D"/>
<defs>
<radialGradient id="paint0_radial_92_1837" cx="0" cy="0" r="1" gradientUnits="userSpaceOnUse" gradientTransform="translate(24.833 24) scale(11.7848 12.2275)">
<stop offset="0.5" stop-color="#FDE030"/>
<stop offset="0.9188" stop-color="#F7C02B"/>
<stop offset="1" stop-color="#F4A223"/>
</radialGradient>
<radialGradient id="paint1_radial_92_1837" cx="0" cy="0" r="1" gradientUnits="userSpaceOnUse" gradientTransform="translate(17.3125 25.9176) scale(3.9389 3.88234)">
<stop stop-color="#ED7770"/>
<stop offset="0.9" stop-color="#ED7770" stop-opacity="0"/>
</radialGradient>
<radialGradient id="paint2_radial_92_1837" cx="0" cy="0" r="1" gradientUnits="userSpaceOnUse" gradientTransform="translate(32.5197 25.9176) scale(3.9389 3.88234)">
<stop stop-color="#ED7770"/>
<stop offset="0.9" stop-color="#ED7770" stop-opacity="0"/>
</radialGradient>
</defs>
</svg>
