<svg width="48" height="48" viewBox="0 0 48 48" fill="none" xmlns="http://www.w3.org/2000/svg">
<path d="M24 36C18.2276 36 12 32.2433 12 24C12 15.7567 18.2276 12 24 12C27.2069 12 30.1655 13.0948 32.3586 15.0912C34.7379 17.2809 36 20.3721 36 24C36 27.6279 34.7379 30.6977 32.3586 32.8873C30.1655 34.8837 27.1862 36 24 36Z" fill="url(#paint0_radial_92_1836)"/>
<path d="M19.9448 19.2861C19.0779 19.2861 18.2897 20.0461 18.2897 21.3083C18.2897 22.5706 19.0779 23.3284 19.9448 23.3284C20.8138 23.3284 21.6 22.5684 21.6 21.3083C21.6 20.0482 20.8221 19.2861 19.9448 19.2861Z" fill="#422B0D"/>
<path d="M19.8724 20.1295C19.5786 19.9835 19.2248 20.1123 19.0821 20.4172C18.9724 20.6554 19.0221 20.9409 19.2062 21.1256C19.5 21.2715 19.8538 21.1427 19.9966 20.8379C20.1062 20.5996 20.0566 20.3141 19.8724 20.1295Z" fill="#896024"/>
<path d="M27.8897 19.2861C27.0228 19.2861 26.2345 20.0461 26.2345 21.3083C26.2345 22.5706 27.0228 23.3284 27.8897 23.3284C28.7566 23.3284 29.5448 22.5684 29.5448 21.3083C29.5448 20.0482 28.7566 19.2861 27.8897 19.2861Z" fill="#422B0D"/>
<path d="M27.8069 20.1295C27.5131 19.9835 27.1593 20.1123 27.0165 20.4172C26.9069 20.6554 26.9565 20.9409 27.1407 21.1256C27.4345 21.2715 27.7882 21.1427 27.931 20.8379C28.0407 20.5996 27.991 20.3141 27.8069 20.1295Z" fill="#896024"/>
<path d="M23.8758 30.1633C21.9992 30.1783 20.2075 29.3604 18.9517 27.9135C18.8565 27.7998 18.8337 27.6388 18.8937 27.5014C18.9537 27.3618 19.0861 27.2717 19.233 27.2695C19.2992 27.2695 19.3655 27.2889 19.4234 27.3232C20.4206 27.9178 22.0882 28.6563 23.8758 28.6563H23.9048C25.6903 28.6563 27.3599 27.9178 28.3551 27.3232C28.413 27.2889 28.4792 27.2695 28.5455 27.2695C28.6924 27.2717 28.8248 27.3618 28.8848 27.5014C28.9468 27.6388 28.9241 27.7998 28.8268 27.9135C27.571 29.3604 25.7751 30.1804 23.8986 30.1633" fill="#422B0D"/>
<path d="M33.9083 16.8662C35.011 18.7124 35.5862 20.9106 35.5862 23.3557C35.5862 26.9836 34.3241 30.0533 31.9448 32.243C29.7517 34.2394 26.7724 35.3557 23.5862 35.3557C19.8496 35.3557 15.931 33.7778 13.6179 30.4311C15.8441 34.2222 20.0317 35.9997 24 35.9997C27.1862 35.9997 30.1655 34.8834 32.3586 32.887C34.7379 30.6973 36 27.6276 36 23.9997C36 21.2648 35.2821 18.8347 33.9083 16.8662Z" fill="#EB8F00"/>
<defs>
<radialGradient id="paint0_radial_92_1836" cx="0" cy="0" r="1" gradientUnits="userSpaceOnUse" gradientTransform="translate(24 24) scale(11.7848 12.2275)">
<stop offset="0.5" stop-color="#FDE030"/>
<stop offset="0.92" stop-color="#F7C02B"/>
<stop offset="1" stop-color="#F4A223"/>
</radialGradient>
</defs>
</svg>
