<svg width="49" height="48" viewBox="0 0 49 48" fill="none" xmlns="http://www.w3.org/2000/svg">
<path d="M23.776 33.9358C22.9186 33.264 14.9563 25.7044 14.8673 25.6218C14.5156 25.2785 14.2942 24.9224 14.2334 24.5961C14.1704 24.257 14.2768 23.9603 14.559 23.6848C14.8217 23.4283 15.1429 23.2927 15.4881 23.2927C15.9092 23.2927 16.3412 23.4877 16.7015 23.8416L20.3115 27.2282C20.3745 27.2876 20.457 27.3172 20.5373 27.3172C20.6219 27.3172 20.7044 27.2854 20.7674 27.224C20.8933 27.1011 20.8933 26.9018 20.7695 26.7789L15.0062 20.9678C14.4288 20.4041 14.1574 19.5415 14.8434 18.8719C15.106 18.6154 15.4273 18.4798 15.7725 18.4798C16.1936 18.4798 16.6256 18.6748 16.9859 19.0287L22.8817 24.6406C22.9446 24.6999 23.0271 24.7317 23.1096 24.7317C23.1921 24.7317 23.2768 24.6999 23.3397 24.6384C23.4656 24.5155 23.4678 24.3163 23.3419 24.1913L16.2609 17.1044C15.9331 16.7843 15.7356 16.4008 15.7008 16.0278C15.6683 15.6484 15.805 15.2966 16.0981 15.0105C16.3607 14.7541 16.682 14.6184 17.0272 14.6184C17.4483 14.6184 17.8803 14.8134 18.2406 15.1652L25.4627 22.0402C25.5257 22.0995 25.6082 22.1313 25.6906 22.1313C25.7731 22.1313 25.8578 22.0995 25.9207 22.0381C26.0466 21.9152 26.0488 21.7159 25.9229 21.5909L20.6784 16.3287C20.3484 16.0066 20.1509 15.6251 20.1183 15.2521C20.0858 14.8727 20.2225 14.5209 20.5156 14.2348C20.7782 13.9784 21.0995 13.8428 21.4446 13.8428C21.8658 13.8428 22.2978 14.0377 22.6581 14.3917C24.5814 16.2355 29.6023 21.0568 29.7717 21.2349C30.4164 21.6693 30.5466 21.0123 30.5792 20.5864C30.6161 20.0904 30.0343 18.359 30.373 16.8013C30.9417 14.7308 32.5806 15.0698 32.6175 15.0868C33.5162 15.4979 33.3447 16.1125 33.0256 17.3481L32.9931 17.5918C32.6588 19.2067 34.9554 23.9921 35.1247 24.3502C36.0256 26.2745 37.0632 30.1762 33.6269 33.531C29.8607 37.208 25.1979 35.3239 23.776 33.9358Z" fill="url(#paint0_radial_92_1839)"/>
<path d="M28.6081 35.9995C26.2985 35.9995 24.3339 34.9208 23.559 34.1727C22.8622 33.6174 18.4642 29.4721 14.8825 26.0791C14.737 25.9413 14.6524 25.8629 14.6437 25.8523C14.2377 25.456 13.9859 25.0428 13.9143 24.6528C13.8318 24.2099 13.9729 23.8093 14.3289 23.4597C14.6545 23.1418 15.0539 22.9743 15.4881 22.9743C15.9982 22.9743 16.5105 23.2032 16.9316 23.6165L20.5373 26.9989L14.7717 21.1878C14.1075 20.5393 13.7732 19.4648 14.6133 18.6467C14.9389 18.3288 15.3383 18.1614 15.7725 18.1614C16.2826 18.1614 16.7949 18.3903 17.216 18.8036L23.1074 24.4112L16.0286 17.3264C15.6509 16.9577 15.4186 16.5063 15.3774 16.057C15.3361 15.578 15.5055 15.1393 15.868 14.7854C16.1936 14.4675 16.593 14.3001 17.0272 14.3001C17.5351 14.3001 18.0474 14.5268 18.4707 14.9401L25.6906 21.813L20.4461 16.5508C20.0662 16.1799 19.8339 15.7285 19.7949 15.2792C19.7536 14.8023 19.923 14.3637 20.2855 14.0097C20.6111 13.6918 21.0105 13.5244 21.4447 13.5244C21.9548 13.5244 22.4671 13.7533 22.8882 14.1666L24.4533 15.6649C27.2427 18.3352 29.5741 20.5711 29.8238 20.8211C29.9453 20.9165 30.1038 20.9525 30.1711 20.9207C30.2145 20.8995 30.2623 20.8021 30.2536 20.5965C30.2406 20.2362 30.1885 19.789 30.1342 19.3164C30.0256 18.367 29.9128 17.3836 30.0539 16.7351C30.3621 15.6098 30.9678 15.133 31.4193 14.9274C32.0401 14.6476 32.6414 14.7451 32.7565 14.7981C33.8853 15.3152 33.6617 16.1799 33.3534 17.3794L33.3469 17.4091L33.3122 17.657C33.0864 18.7421 34.2456 21.7409 35.4048 24.1844L35.4221 24.2184C36.1971 25.8714 37.5929 30.1121 33.8592 33.7573C32.1421 35.4294 30.284 35.9995 28.6081 35.9995ZM15.4881 23.6101C15.2319 23.6101 14.9888 23.714 14.7891 23.9089C14.5829 24.1103 14.5113 24.3052 14.5547 24.5384C14.6024 24.7948 14.7956 25.1 15.0974 25.3967C15.0995 25.3988 15.1864 25.4815 15.3361 25.6213C20.4201 30.4385 23.4895 33.3016 23.9801 33.6874L24.0061 33.7107C25.2044 34.8805 29.6566 36.9574 33.3968 33.3059C36.8418 29.9426 35.5459 26.0155 34.8274 24.4811L34.8122 24.4494C34.0654 22.8768 32.3679 19.0621 32.6696 17.5405L32.7196 17.2226C33.0539 15.9256 33.0734 15.6543 32.5068 15.3873C32.3397 15.3576 31.1414 15.2156 30.6834 16.8835C30.5683 17.4154 30.679 18.3882 30.7767 19.2465C30.8332 19.7318 30.8853 20.1917 30.8983 20.5753C30.92 21.1793 30.6269 21.4103 30.4489 21.4951C30.0864 21.6667 29.6544 21.5205 29.3853 21.3001L29.3571 21.2747C29.2246 21.1348 26.0749 18.119 23.9909 16.1227L22.4237 14.6201C21.8897 14.0966 21.2015 14.0097 20.7392 14.4611C20.5134 14.6815 20.4114 14.9401 20.4352 15.2262C20.4613 15.525 20.6263 15.8366 20.902 16.1057L26.1574 21.3679C26.4048 21.6137 26.4048 22.0164 26.153 22.2623C25.9121 22.4975 25.4866 22.5017 25.2391 22.2686L18.0127 15.3915C17.4787 14.8702 16.7884 14.7833 16.3282 15.2347C16.1024 15.4551 16.0004 15.7136 16.0243 15.9997C16.0525 16.2986 16.2175 16.6122 16.491 16.8771L23.5742 23.9683C23.8238 24.2141 23.8216 24.6168 23.5698 24.8626C23.3289 25.0979 22.9034 25.1021 22.6559 24.869L16.758 19.255C16.224 18.7294 15.5337 18.6446 15.0735 19.096C14.5113 19.6449 14.8108 20.3252 15.2363 20.7427L21.004 26.5581C21.2515 26.8039 21.2493 27.2044 20.9975 27.4482C20.7543 27.6855 20.3332 27.6876 20.0858 27.4566L16.4758 24.07C16.1719 23.7712 15.8224 23.6101 15.4881 23.6101Z" fill="#EDA600"/>
<path d="M29.2528 21.0283C28.0611 23.404 28.2152 26.7292 30.0039 29.3974C30.2058 29.7577 30.5509 29.5818 30.3751 29.2109C28.2152 24.6989 30.4793 21.4479 30.4793 21.4479L29.2528 21.0283Z" fill="#EDA600"/>
<path d="M24.5661 12.1198C25.2217 11.9524 25.9207 11.9672 26.6001 12.1219C27.2752 12.2809 27.9503 12.6157 28.4518 13.1625C28.9424 13.7051 29.2441 14.3642 29.3461 15.055C29.4417 15.7396 29.3526 16.4453 29.0205 17.0302C28.9815 16.3732 28.8642 15.7692 28.6667 15.2119C28.5647 14.9342 28.4453 14.6693 28.2998 14.4193C28.1566 14.1713 27.9872 13.9255 27.8071 13.7241C27.4402 13.3109 26.9431 12.9887 26.3852 12.7387C25.8252 12.4801 25.2152 12.2894 24.5661 12.1198Z" fill="#B0BEC5"/>
<path d="M24.7463 14.1292C25.1088 13.9045 25.5625 13.8579 25.9901 13.9321C26.4221 14.0063 26.8345 14.2161 27.1602 14.5064C27.4836 14.801 27.7137 15.1719 27.857 15.5576C27.9264 15.7504 27.9612 15.9539 27.9937 16.151C28.0046 16.3544 28.0046 16.5579 27.972 16.7613C27.8222 16.6066 27.705 16.4519 27.5943 16.3014C27.4662 16.1595 27.3664 16.009 27.2513 15.8712C27.0256 15.5978 26.8063 15.3499 26.5697 15.1295C26.3266 14.9154 26.0704 14.7268 25.773 14.5636C25.4778 14.3962 25.1457 14.2563 24.7463 14.1292Z" fill="#90A4AE"/>
<path d="M12.3361 27.5566C12.6422 28.1416 12.9613 28.6841 13.3325 29.1631C13.7015 29.642 14.1248 30.0489 14.6176 30.3138C14.8564 30.4431 15.1407 30.5554 15.4186 30.6402C15.6986 30.7271 15.9895 30.7864 16.2891 30.8267C16.8882 30.8988 17.5177 30.886 18.1841 30.7864C17.6675 31.2251 16.9772 31.4583 16.2739 31.5091C15.5619 31.5557 14.839 31.4053 14.1921 31.0492C13.5409 30.6868 13.0633 30.1104 12.7638 29.4979C12.4642 28.8812 12.3036 28.2179 12.3361 27.5566Z" fill="#B0BEC5"/>
<path d="M14.3875 27.3086C14.598 27.6646 14.8064 27.9507 15.0343 28.2008C15.2601 28.4509 15.5032 28.6565 15.7681 28.843C16.0372 29.0231 16.3325 29.182 16.6537 29.341C16.8144 29.4215 16.9859 29.4851 17.1552 29.5784C17.331 29.6525 17.509 29.7309 17.6957 29.8433C17.4982 29.9153 17.2963 29.9577 17.09 29.9895C16.886 29.998 16.6754 30.0086 16.467 29.981C16.0503 29.9259 15.6335 29.7839 15.2688 29.536C14.9106 29.2838 14.6132 28.9341 14.4504 28.5378C14.2854 28.1436 14.2377 27.7028 14.3875 27.3086Z" fill="#90A4AE"/>
<defs>
<radialGradient id="paint0_radial_92_1839" cx="0" cy="0" r="1" gradientUnits="userSpaceOnUse" gradientTransform="translate(20.4149 19.2194) rotate(-44.3127) scale(19.5227 19.5171)">
<stop offset="0.3533" stop-color="#FFCA28"/>
<stop offset="0.8723" stop-color="#FFB300"/>
</radialGradient>
</defs>
</svg>
