<svg width="46" height="46" viewBox="0 0 46 46" fill="none" xmlns="http://www.w3.org/2000/svg">
<path d="M28.5 22.501C29.9587 22.501 31.3577 23.0805 32.3891 24.112C33.4206 25.1434 34 26.5424 34 28.001C34 29.4597 33.4206 30.8587 32.3891 31.8901C31.3577 32.9216 29.9587 33.501 28.5 33.501C27.0413 33.501 25.6424 32.9216 24.6109 31.8901C23.5795 30.8587 23 29.4597 23 28.001C23 26.5424 23.5795 25.1434 24.6109 24.112C25.6424 23.0805 27.0413 22.501 28.5 22.501ZM23 12.498C28.524 12.498 33.002 16.976 33.002 22.5C33.002 22.763 32.992 23.024 32.972 23.282C32.5318 22.8643 32.0353 22.5102 31.497 22.23C31.4443 20.5725 30.9079 18.9665 29.9539 17.61C28.9999 16.2535 27.6699 15.2056 26.1278 14.5955C24.5857 13.9854 22.8988 13.8396 21.2749 14.1762C19.651 14.5128 18.1611 15.317 16.9885 16.4899C15.816 17.6627 15.0121 19.1528 14.6759 20.7768C14.3396 22.4008 14.4858 24.0876 15.0962 25.6296C15.7067 27.1715 16.7549 28.5013 18.1116 29.455C19.4684 30.4087 21.0744 30.9447 22.732 30.997C23.012 31.537 23.367 32.033 23.782 32.471C23.525 32.491 23.264 32.501 23 32.501C17.476 32.501 12.998 28.023 12.998 22.5C12.998 16.977 17.476 12.499 23 12.499V12.498ZM28.5 24.498L28.41 24.506C28.3101 24.5243 28.2181 24.5725 28.1463 24.6444C28.0745 24.7162 28.0263 24.8081 28.008 24.908L28 24.998V27.498L25.498 27.501L25.408 27.509C25.3081 27.5273 25.2161 27.5755 25.1443 27.6474C25.0725 27.7192 25.0243 27.8111 25.006 27.911L24.998 28.001L25.006 28.091C25.0243 28.191 25.0725 28.2829 25.1443 28.3547C25.2161 28.4266 25.3081 28.4748 25.408 28.493L25.498 28.501H28V31.005L28.008 31.095C28.0265 31.1948 28.0748 31.2865 28.1466 31.3581C28.2184 31.4298 28.3102 31.4779 28.41 31.496L28.5 31.505L28.59 31.496C28.6899 31.4778 28.7819 31.4296 28.8537 31.3577C28.9255 31.2859 28.9738 31.194 28.992 31.094L29 31.004V28.5L31.503 28.501L31.593 28.493C31.6929 28.4748 31.7849 28.4266 31.8567 28.3547C31.9285 28.2829 31.9768 28.191 31.995 28.091L32.004 28.001L31.996 27.911C31.9777 27.811 31.9293 27.7189 31.8573 27.6471C31.7853 27.5753 31.6931 27.5271 31.593 27.509L31.503 27.501H29V25.001L28.992 24.911C28.9739 24.811 28.9258 24.7188 28.854 24.6468C28.7821 24.5748 28.6901 24.5264 28.59 24.508L28.5 24.5V24.498ZM19.462 25.283C20.1188 26.1191 21.0506 26.6952 22.092 26.909C22.0067 27.4076 21.9801 27.9144 22.013 28.419C20.5374 28.1752 19.2066 27.3875 18.283 26.211C18.2221 26.1336 18.177 26.045 18.1503 25.9501C18.1237 25.8553 18.1159 25.7561 18.1276 25.6583C18.1392 25.5605 18.17 25.4659 18.2182 25.38C18.2664 25.2941 18.3311 25.2185 18.4085 25.1575C18.4859 25.0966 18.5746 25.0515 18.6694 25.0249C18.7643 24.9982 18.8634 24.9905 18.9613 25.0021C19.0591 25.0138 19.1537 25.0446 19.2396 25.0928C19.3255 25.141 19.4011 25.2056 19.462 25.283ZM20 19.251C20.1671 19.2463 20.3334 19.2751 20.4891 19.3358C20.6448 19.3965 20.7868 19.4878 20.9067 19.6043C21.0265 19.7207 21.1218 19.8601 21.1868 20.014C21.2519 20.168 21.2854 20.3334 21.2854 20.5005C21.2854 20.6677 21.2519 20.8331 21.1868 20.9871C21.1218 21.141 21.0265 21.2803 20.9067 21.3968C20.7868 21.5133 20.6448 21.6046 20.4891 21.6653C20.3334 21.726 20.1671 21.7548 20 21.75C19.6747 21.7408 19.3659 21.6052 19.1391 21.3718C18.9123 21.1385 18.7854 20.8259 18.7854 20.5005C18.7854 20.1751 18.9123 19.8626 19.1391 19.6293C19.3659 19.3959 19.6747 19.2603 20 19.251ZM26 19.251C26.1671 19.2463 26.3334 19.2751 26.4891 19.3358C26.6448 19.3965 26.7868 19.4878 26.9067 19.6043C27.0265 19.7207 27.1218 19.8601 27.1868 20.014C27.2519 20.168 27.2854 20.3334 27.2854 20.5005C27.2854 20.6677 27.2519 20.8331 27.1868 20.9871C27.1218 21.141 27.0265 21.2803 26.9067 21.3968C26.7868 21.5133 26.6448 21.6046 26.4891 21.6653C26.3334 21.726 26.1671 21.7548 26 21.75C25.6747 21.7408 25.3659 21.6052 25.1391 21.3718C24.9123 21.1385 24.7854 20.8259 24.7854 20.5005C24.7854 20.1751 24.9123 19.8626 25.1391 19.6293C25.3659 19.3959 25.6747 19.2603 26 19.251Z" fill="#737373"/>
</svg>
