<svg width="49" height="48" viewBox="0 0 49 48" fill="none" xmlns="http://www.w3.org/2000/svg">
<path d="M24.165 36C18.3926 36 12.165 32.2433 12.165 24C12.165 15.7567 18.3926 12 24.165 12C27.3719 12 30.3305 13.0948 32.5236 15.0912C34.9029 17.2809 36.165 20.3721 36.165 24C36.165 27.6279 34.9029 30.6977 32.5236 32.8873C30.3305 34.8837 27.3512 36 24.165 36Z" fill="url(#paint0_radial_92_1838)"/>
<path d="M34.0733 16.8662C35.176 18.7124 35.7512 20.9106 35.7512 23.3557C35.7512 26.9836 34.4891 30.0533 32.1098 32.243C29.9167 34.2394 26.9374 35.3557 23.7512 35.3557C20.0147 35.3557 16.096 33.7778 13.7829 30.4311C16.0091 34.2222 20.1967 35.9997 24.165 35.9997C27.3512 35.9997 30.3305 34.8834 32.5236 32.887C34.9029 30.6973 36.165 27.6276 36.165 23.9997C36.165 21.2648 35.4471 18.8347 34.0733 16.8662Z" fill="#EB8F00"/>
<path d="M20.1099 19.2861C19.243 19.2861 18.4547 20.0461 18.4547 21.3083C18.4547 22.5706 19.243 23.3284 20.1099 23.3284C20.9788 23.3284 21.765 22.5684 21.765 21.3083C21.765 20.0482 20.9871 19.2861 20.1099 19.2861Z" fill="#422B0D"/>
<path d="M20.0374 20.1295C19.7436 19.9835 19.3898 20.1123 19.2471 20.4172C19.1374 20.6554 19.1871 20.9409 19.3712 21.1256C19.665 21.2715 20.0188 21.1427 20.1616 20.8379C20.2712 20.5996 20.2216 20.3141 20.0374 20.1295Z" fill="#896024"/>
<path d="M28.0547 19.2861C27.1878 19.2861 26.3995 20.0461 26.3995 21.3083C26.3995 22.5706 27.1878 23.3284 28.0547 23.3284C28.9216 23.3284 29.7099 22.5684 29.7099 21.3083C29.7099 20.0482 28.9216 19.2861 28.0547 19.2861Z" fill="#422B0D"/>
<path d="M27.9719 20.1295C27.6781 19.9835 27.3243 20.1123 27.1815 20.4172C27.0719 20.6554 27.1215 20.9409 27.3057 21.1256C27.5995 21.2715 27.9533 21.1427 28.096 20.8379C28.2057 20.5996 28.156 20.3141 27.9719 20.1295Z" fill="#896024"/>
<path d="M24.285 27.2825C26.1615 27.2653 27.9574 28.0854 29.2133 29.5322C29.3084 29.646 29.3312 29.807 29.2712 29.9444C29.2112 30.0839 29.0788 30.1741 28.9319 30.1762C28.8657 30.1762 28.7995 30.1569 28.7415 30.1226C27.7443 29.5279 26.0767 28.7895 24.2891 28.7895H24.2602C22.4747 28.7895 20.805 29.5279 19.8098 30.1226C19.7519 30.1569 19.6857 30.1762 19.6195 30.1762C19.4726 30.1741 19.3422 30.0839 19.2822 29.9444C19.2202 29.807 19.2429 29.646 19.3402 29.5322C20.596 28.0854 22.3898 27.2653 24.2664 27.2825" fill="#422B0D"/>
<defs>
<radialGradient id="paint0_radial_92_1838" cx="0" cy="0" r="1" gradientUnits="userSpaceOnUse" gradientTransform="translate(24.165 24) scale(11.7848 12.2275)">
<stop offset="0.5" stop-color="#FDE030"/>
<stop offset="0.92" stop-color="#F7C02B"/>
<stop offset="1" stop-color="#F4A223"/>
</radialGradient>
</defs>
</svg>
